<?xml version="1.0" encoding="UTF-8"?><svg id="b" xmlns="http://www.w3.org/2000/svg" viewBox="0 0 649.76 208.83"><defs><style>.f{fill:#1c6ef5;}</style></defs><g id="c"><path d="M265.9,30.73c1.08,2.81,4.74,3.41,6.66,1.09,2.86-3.44,6.39-6.29,10.58-8.54,7.2-3.86,15.01-5.79,23.41-5.79,17.32,0,30.96,6.3,40.91,18.91,9.95,12.61,14.92,27.83,14.92,45.67,0,12.01-2.57,22.94-7.72,32.8-5.15,9.86-11.83,17.41-20.07,22.64-8.23,5.23-17.62,8.36-28.17,9.39-8.79.86-17.66-.67-26.63-4.57-2.55-1.11-5.4.81-5.4,3.6v58.82c0,2.15-1.75,3.9-3.9,3.9h-28.22c-2.15,0-3.9-1.75-3.9-3.9V55.7c0-.6-.04-1.58-.13-2.96-.09-1.37-.22-2.27-.39-2.7-.17-.43-.43-1.11-.77-2.06-.35-.94-.82-1.58-1.42-1.93-.6-.34-1.29-.73-2.06-1.16-.77-.43-1.76-.64-2.96-.64h0c-2.14,0-3.88-1.72-3.9-3.86l-.18-16.81c-.02-1.91,1.35-3.56,3.23-3.89,3.61-.63,7.07-.97,10.37-1.04,4.29-.08,8.62.35,12.99,1.29,4.37.95,7.85,3.13,10.42,6.56.94,1.26,1.71,2.67,2.31,4.23ZM273.37,77.44v30c0,1.52.88,2.89,2.25,3.54,8.08,3.86,15.69,5.67,22.83,5.44,7.8-.26,14.36-3.51,19.68-9.78,5.31-6.26,7.98-14.45,7.98-24.57,0-8.92-2.36-16.63-7.08-23.15-4.72-6.52-11.36-9.78-19.94-9.78-7.72.17-13.89,3-18.52,8.49-4.63,5.49-7.03,12.09-7.2,19.81Z"/><path d="M469.26,134.06c-.79-2.44-3.89-3.12-5.56-1.17-3.31,3.87-7.63,6.96-12.95,9.25-8.15,3.51-16.68,5.27-25.6,5.27-12.01,0-22.43-3.56-31.26-10.68-8.84-7.12-13.42-16.51-13.76-28.17-.69-14.58,3.51-25.68,12.61-33.32,9.09-7.63,20.92-11.45,35.5-11.45,11.21,0,20.67,1.82,28.36,5.46,2.13,1.01,4.57-.59,4.57-2.94v-3.04c0-11.83-10.29-17.75-30.87-17.75-12.94,0-23.62,1.87-32.05,5.61-1.91.85-4.11-.32-4.48-2.38l-3.42-19.01c-.27-1.49.54-2.95,1.93-3.56,12.53-5.45,27.26-8.18,44.19-8.18,39.45,0,59.17,15.44,59.17,46.31v44.77c0,3.43.04,5.83.13,7.2.08,1.38.47,2.96,1.16,4.76.68,1.8,1.84,2.96,3.47,3.47,1.02.32,2.28.51,3.8.56,1.7.06,3.04,1.49,3.06,3.19l.18,14.06c.02,1.61-1.16,2.99-2.75,3.24-5.5.88-10.75,1.32-15.74,1.32-5.83,0-10.76-1.76-14.79-5.27-2.28-1.99-3.92-4.51-4.91-7.57ZM460.4,100.41v-4.48c0-1.14-.61-2.19-1.58-2.79-6.69-4.1-14.69-6.16-23.99-6.18-.1,0-.21,0-.31,0-5.94.37-10.77,2.21-14.51,5.52-3.77,3.34-5.32,7.93-4.63,13.76.34,4.29,2.14,7.59,5.4,9.91,3.26,2.32,7.12,3.47,11.58,3.47,6.69,0,12.9-1.67,18.65-5.02,5.69-3.31,8.81-7.92,9.37-13.84.01-.12.02-.25.02-.37Z"/><path d="M649.76,24.57c0,.43-.08.85-.24,1.25l-52.24,131.38c-3.43,8.75-6.69,16.04-9.78,21.87-3.09,5.83-6.78,11.19-11.06,16.08-4.29,4.89-8.96,8.32-14.02,10.29-5.06,1.97-11.11,2.79-18.14,2.44-6.31-.31-13.39-1.79-21.22-4.45-1.56-.53-2.53-2.1-2.28-3.74l2.8-18.1c.32-2.06,2.41-3.35,4.39-2.7,8.49,2.8,15.22,2.81,20.17.04,5.66-3.18,10.38-10.08,14.15-20.71l4.17-11.57c.3-.83.26-1.74-.1-2.54l-53.42-118.23c-.2-.44-.3-.91-.3-1.39h0c0-1.87,1.52-3.39,3.39-3.39h32.14c1.39,0,2.63.84,3.15,2.13l15.87,39.8,16.21,45.79h.77l14.15-45.54,14.12-39.93c.48-1.35,1.76-2.26,3.19-2.26h30.75c1.87,0,3.39,1.52,3.39,3.39v.08Z"/><g id="d"><path id="e" class="f" d="M103.83,0C51.19,0,7.6,38.52,0,88.75h32.06c7.22-32.83,36.58-57.43,71.77-57.43s64.55,24.6,71.77,57.43h-32.81c-6.23-15.32-21.32-26.1-38.95-26.1-23.2,0-42,18.7-42,41.77s18.81,41.77,42,41.77c17.62,0,32.72-10.8,38.95-26.1h32.81c-7.22,32.83-36.58,57.43-71.77,57.43s-64.55-24.6-71.77-57.43H0c7.6,50.23,51.19,88.75,103.83,88.75,57.99,0,105.01-46.75,105.01-104.42S161.82,0,103.83,0h0Z"/></g></g></svg>