<svg width="577" height="85" viewBox="0 0 577 85" fill="none" xmlns="http://www.w3.org/2000/svg">
<path d="M19.0417 42.205L9.56207 51.6846L0 42.205L9.56207 32.6429L19.0417 42.205ZM42.205 19.0417L58.5265 35.3632L68.0885 25.8011L42.205 0L16.3215 25.8835L25.8835 35.4456L42.205 19.0417ZM74.8479 32.6429L65.3683 42.205L74.9304 51.7671L84.4924 42.205L74.8479 32.6429ZM42.205 65.3683L25.8835 48.9644L16.3215 58.5265L42.205 84.41L68.0885 58.5265L58.5265 48.9644L42.205 65.3683ZM42.205 51.6846L51.7671 42.1226L42.205 32.6429L32.6429 42.205L42.205 51.6846ZM142.772 52.6738V52.509C142.772 46.3266 139.474 43.1942 134.116 41.1334C137.414 39.3199 140.216 36.3524 140.216 31.1592V30.9943C140.216 23.7403 134.364 19.0417 124.966 19.0417H103.452V65.2859H125.461C135.93 65.3683 142.772 61.0818 142.772 52.6738ZM130.077 32.8902C130.077 36.3524 127.274 37.7537 122.741 37.7537H113.344V27.9443H123.4C127.687 27.9443 130.077 29.6754 130.077 32.7254V32.8902ZM132.632 51.3549C132.632 54.817 129.912 56.3832 125.461 56.3832H113.344V46.2441H125.131C130.324 46.2441 132.632 48.1401 132.632 51.2725V51.3549ZM164.121 65.2859V19.0417H153.9V65.2859H164.121ZM218.856 65.3683V19.0417H208.799V47.5631L187.12 19.0417H177.723V65.2859H187.779V35.9402L210.201 65.3683H218.856ZM275.239 65.3683L255.373 18.7944H245.976L226.11 65.3683H236.579L240.783 54.9819H260.319L264.523 65.3683H275.239ZM256.692 45.9969H244.41L250.592 30.9943L256.692 45.9969ZM323.791 65.3683V19.0417H313.735V47.5631L292.055 19.0417H282.658V65.2859H292.715V35.9402L315.136 65.3683H323.791ZM376.3 57.867L369.788 51.3549C366.161 54.6522 362.946 56.7954 357.588 56.7954C349.675 56.7954 344.152 50.2009 344.152 42.2874V42.0401C344.152 34.1267 349.757 27.6146 357.588 27.6146C362.205 27.6146 365.832 29.593 369.459 32.8078L375.971 25.3065C371.684 21.1025 366.491 18.135 357.753 18.135C343.575 18.135 333.601 28.9335 333.601 42.0401V42.205C333.601 55.4765 343.74 66.0277 357.341 66.0277C366.244 66.1102 371.519 62.9778 376.3 57.867ZM419.742 65.2859V56.3008H394.6V46.5739H416.445V37.5064H394.6V28.1092H419.412V19.0417H384.544V65.2859H419.742Z" fill="#F0B90B"/>
<path d="M488.339 34.5744C488.339 25.1364 481.541 19.0644 470.783 19.0644H452.567V65.2644H460.685V50.4144H469.859C480.023 50.4144 488.339 45.0024 488.339 34.5744ZM480.089 34.7724C480.089 39.7224 476.261 43.0884 470.123 43.0884H460.685V26.4564H470.123C476.195 26.4564 480.089 29.2944 480.089 34.7724Z" fill="black"/>
<path d="M515.905 18.7344H508.381L488.053 65.2644H496.369L501.121 54.1104H522.967L527.653 65.2644H536.233L515.905 18.7344ZM519.997 46.9164H504.091L512.011 28.4364L519.997 46.9164Z" fill="black"/>
<path d="M558.652 46.8504L577 19.0644H567.694L554.626 39.5244L541.69 19.0644H532.12L550.468 47.0484V65.2644H558.652V46.8504Z" fill="black"/>
</svg>
