<?xml version="1.0" encoding="UTF-8"?>
<svg id="b" data-name="Layer 2" xmlns="http://www.w3.org/2000/svg" viewBox="0 0 512 600">
  <g id="c" data-name="Layer 1">
    <g>
      <g>
        <path d="M388.34,178.31l-8.91-6.3,8.91-6.3c15.98-11.34,25.52-29.81,25.52-49.36,0-21.56-11.58-41.62-30.38-52.45l-.78-.48c-9.15-5.28-19.61-8.1-30.23-8.1-8.58,0-16.82,1.77-24.56,5.19l-9.69,4.32-1.14-10.56c-2.04-19.19-13.22-36.38-29.99-46.06l-.27-.12c-9.18-5.34-19.61-8.1-30.2-8.1s-21.92,3.03-31.37,8.73l-1.53,.93c-15.8,9.6-26.54,26.3-28.7,44.74l-1.26,10.44-9.57-4.26c-7.8-3.48-16.07-5.25-24.68-5.25-10.62,0-21.05,2.82-30.2,8.1l-.96,.54c-18.65,10.77-30.23,30.86-30.23,52.39v1.08c0,19.55,9.57,38.03,25.55,49.36l8.88,6.3-8.88,6.3c-15.98,11.37-25.55,29.81-25.55,49.39,0,21.53,11.58,41.59,30.29,52.39l.87,.54c9.15,5.28,19.64,8.07,30.26,8.07,8.55,0,16.82-1.77,24.59-5.19l9.69-4.29,1.11,10.56c2.04,19.16,13.23,36.35,29.84,45.97l.39,.21c9.18,5.31,19.64,8.1,30.26,8.1s21.89-3.03,31.37-8.79l1.5-.9c15.83-9.57,26.54-26.3,28.7-44.74l1.23-10.44,9.6,4.29c7.77,3.45,16.04,5.22,24.65,5.22,10.62,0,21.08-2.82,30.32-8.13l.84-.51c18.65-10.77,30.23-30.83,30.23-52.36v-1.11c0-19.52-9.54-38-25.52-49.36Zm-8.58,50.47c0,9.36-5.04,18.14-13.2,22.85l-.9,.54c-8.13,4.68-18.23,4.68-26.42,0l-24.56-14.21-31.37,18.14v27.65c0,9.15-4.86,17.81-12.69,22.55l-1.53,.93c-8.25,4.98-18.53,5.1-26.87,.3l-.33-.21c-8.13-4.68-13.23-13.46-13.23-22.85v-28.37l-31.37-18.14-24.56,14.21c-8.13,4.68-18.26,4.68-26.36,0l-.93-.57c-8.16-4.68-13.22-13.47-13.22-22.82s4.95-17.96,12.96-22.73l25.61-15.14-.21-36.14-25.13-14.51c-8.16-4.68-13.22-13.44-13.22-22.82v-1.08c0-9.39,5.07-18.14,13.22-22.85l.9-.57c8.13-4.68,18.26-4.68,26.39,0l24.56,14.21,31.37-18.11v-27.65c0-9.15,4.92-17.78,12.72-22.55l1.53-.93c8.25-5.01,18.53-5.1,26.84-.3l.33,.18c8.19,4.71,13.22,13.46,13.22,22.88v28.37l31.37,18.11,24.56-14.21c8.19-4.68,18.29-4.68,26.42,0l.9,.57c8.16,4.71,13.2,13.46,13.2,22.85s-4.95,17.96-12.93,22.7l-25.64,15.14,.21,36.14,25.16,14.51c8.16,4.68,13.2,13.46,13.2,22.82v1.11Z" style="fill: #10f48b;"/>
        <g>
          <polygon points="307.04 130.8 256 160.23 204.96 130.8 256 101.32 307.04 130.8" style="fill: #10f48b;"/>
          <polygon points="245.37 178.65 245.37 237.6 194.33 208.13 194.33 149.22 245.37 178.65" style="fill: #10f48b;"/>
          <polygon points="317.67 149.22 317.67 208.13 266.63 237.6 266.63 178.65 317.67 149.22" style="fill: #10f48b;"/>
        </g>
      </g>
      <g>
        <g>
          <path d="M43.36,400.23c-4.11,0-8.05,.7-11.74,2.03v17.76c2.61-1.33,5.54-2.06,8.62-2.06,11.14,0,20.15,9.47,20.15,21.15s-9.02,21.15-20.15,21.15c-3.08,0-6.02-.73-8.62-2.06-6.81-3.39-11.5-10.65-11.5-19.09v-61.76c0-2.14-1.73-3.87-3.87-3.87H3.84c-2.12,0-3.84,1.72-3.84,3.84v95.31c0,2.12,1.72,3.84,3.84,3.84h12.4c2.13,0,3.87-1.74,3.87-3.87v-3.3c3.39,2.87,7.26,5.14,11.5,6.6,3.69,1.33,7.63,2.03,11.74,2.03,20.45,0,37.07-17.4,37.07-38.85s-16.61-38.85-37.07-38.85Z" style="fill: #07071a;"/>
          <path d="M106.09,371.8c-3.18,0-5.87,1.06-8.08,3.21-2.24,2.12-3.36,4.69-3.36,7.66,0,3.12,1.12,5.72,3.36,7.87,2.21,2.15,4.9,3.15,8.08,3.15s5.72-1,7.9-3.15c2.18-2.15,3.27-4.75,3.27-7.87s-1.09-5.54-3.27-7.66c-2.18-2.15-4.78-3.21-7.9-3.21Z" style="fill: #07071a;"/>
          <path d="M112.24,401.72h-12.22c-1.3,0-2.3,.39-3.03,1.12-.7,.7-1.09,1.72-1.09,2.97v66.6c0,1.24,.39,2.27,1.09,2.97,.73,.76,1.72,1.12,3.03,1.12h12.22c1.24,0,2.27-.36,2.96-1.12,.76-.7,1.12-1.72,1.12-2.97v-66.6c0-1.24-.36-2.27-1.12-2.97-.69-.73-1.72-1.12-2.96-1.12Z" style="fill: #07071a;"/>
          <path d="M170.24,400.39h-10.92v-15.95c0-1.27-.33-2.24-1.06-3-.76-.73-1.73-1.06-3-1.06h-11.98c-1.24,0-2.27,.33-3.03,1.06-.7,.76-1.06,1.72-1.06,3v15.95h-5.02c-1.3,0-2.27,.36-3.03,1.06-.7,.76-1.06,1.72-1.06,3.03v9.65c0,1.27,.36,2.24,1.06,3,.76,.73,1.72,1.06,3.03,1.06h5.02v40.3c0,5.17,1.03,9.08,2.97,11.71,2,2.6,4.75,4.48,8.2,5.45,3.42,.97,8.23,1.48,14.31,1.48,2.24,0,3.93-.03,5.14-.12,1.27-.09,2.24-.51,2.94-1.3,.66-.76,1.03-1.79,1.03-3.03v-9.02c0-2.6-1.45-3.96-4.24-3.96h-.97c-3.72,0-6.17-.94-7.38-2.78-1.21-1.85-1.88-4.66-1.88-8.38v-30.35h10.92c1.27,0,2.24-.33,2.99-1.06,.73-.76,1.06-1.72,1.06-3v-9.65c0-1.3-.33-2.27-1.06-3.03-.76-.7-1.72-1.06-2.99-1.06Z" style="fill: #07071a;"/>
          <path d="M344.95,401.87h-61.91c-1.3,0-2.3,.36-3.03,1.12-.76,.7-1.09,1.72-1.09,2.97v9.38c0,1.27,.33,2.3,1.09,3,.73,.73,1.72,1.12,3.03,1.12h30.98l-37.13,52.1c-.67,.94-.97,1.76-.97,2.6,0,.7,.27,1.3,.82,1.66,.57,.42,1.27,.67,2.18,.67h62.88c1.3,0,2.27-.36,3.03-1.12,.48-.51,.88-1.21,1-2.09,.06-.27,.06-.57,.06-.88v-9.53c0-1.3-.36-2.3-1.06-3.03-.76-.7-1.72-1.09-3.03-1.09h-32.5l37.28-51.95c.45-.7,.76-1.36,.88-2,.06-.21,.06-.42,.06-.61,0-.76-.24-1.3-.66-1.72-.46-.36-1.12-.61-1.91-.61Z" style="fill: #07071a;"/>
          <path d="M422.53,401.87h-61.97c-1.24,0-2.21,.36-2.96,1.12-.55,.51-.88,1.21-1.03,2.09-.03,.27-.03,.54-.03,.88v9.38c0,1.27,.3,2.3,1.06,3,.76,.73,1.72,1.12,2.96,1.12h31.08l-37.16,52.1c-.51,.7-.79,1.33-.94,1.94-.03,.24-.03,.48-.03,.67,0,.7,.27,1.3,.82,1.66,.51,.42,1.27,.67,2.21,.67h62.85c1.24,0,2.27-.36,3.03-1.12,.7-.7,1.06-1.72,1.06-2.97v-9.53c0-1.3-.36-2.3-1.06-3.03-.76-.7-1.78-1.09-3.03-1.09h-32.56l37.34-51.95c.61-.94,.94-1.82,.94-2.6s-.24-1.3-.66-1.72c-.46-.36-1.09-.61-1.91-.61Z" style="fill: #07071a;"/>
          <path d="M260.81,401.65h-12.41c-2.13,0-3.87,1.74-3.87,3.87v3.3c-3.39-2.87-7.26-5.14-11.5-6.6-3.69-1.33-7.63-2.03-11.74-2.03-20.45,0-37.07,17.4-37.07,38.85s16.61,38.85,37.07,38.85c4.11,0,8.05-.7,11.74-2.03v-17.76c-2.6,1.33-5.54,2.06-8.62,2.06-11.14,0-20.15-9.47-20.15-21.15s9.02-21.15,20.15-21.15c3.09,0,6.02,.73,8.62,2.06,6.81,3.39,11.5,10.65,11.5,19.09v33.65c0,2.14,1.73,3.87,3.87,3.87h12.41c2.12,0,3.84-1.72,3.84-3.84v-67.2c0-2.12-1.72-3.84-3.84-3.84Z" style="fill: #07071a;"/>
          <path d="M508.16,401.65h-12.4c-2.13,0-3.87,1.74-3.87,3.87v3.3c-3.39-2.87-7.26-5.14-11.5-6.6-3.69-1.33-7.63-2.03-11.74-2.03-20.45,0-37.07,17.4-37.07,38.85s16.61,38.85,37.07,38.85c4.11,0,8.05-.7,11.74-2.03v-17.76c-2.6,1.33-5.54,2.06-8.62,2.06-11.14,0-20.15-9.47-20.15-21.15s9.02-21.15,20.15-21.15c3.08,0,6.02,.73,8.62,2.06,6.81,3.39,11.5,10.65,11.5,19.09v33.65c0,2.14,1.73,3.87,3.87,3.87h12.4c2.12,0,3.84-1.72,3.84-3.84v-67.2c0-2.12-1.72-3.84-3.84-3.84Z" style="fill: #07071a;"/>
        </g>
        <g>
          <path d="M192.26,554.3c5.26-5.75,7.93-12.77,7.93-20.86,0-10.87-4.9-19.02-15.08-25.29-3.93-2.42-8.45-3.55-12.98-3.55-16.72,0-61.4,0-63.79,0-.06,0-.1,.05-.1,.12v18.56c0,1.55,1.18,2.81,2.63,2.81h61.73c1.08,0,2.16,.16,3.15,.62,3,1.42,4.7,4.44,4.58,7.73-.16,4.24-3.96,7.67-7.92,7.67-14.08,0-61.61,0-64.07,0-.06,0-.1,.05-.1,.12v54.42c0,1.54,1.15,2.79,2.59,2.81l14.59,.25c1.47,.03,2.68-1.24,2.68-2.81v-33.84c0-.07,.05-.12,.11-.12h45.11c7.42,0,13.61-2.83,18.94-8.65Z" style="fill: #07071a;"/>
          <path d="M382.17,505.71l-32.31,44.8c-.04,.06-.13,.06-.18,0l-32.07-44.79c-.5-.7-1.27-1.1-2.09-1.1h-17.19c-2.18,0-3.42,2.68-2.09,4.53l44.76,62.36,.02,.07v25.02c0,1.55,1.18,2.81,2.63,2.81h13.28c1.45,0,2.63-1.26,2.63-2.81v-25.01l.02-.07,43.62-62.4c1.3-1.86,.06-4.5-2.11-4.5h-16.86c-.82,0-1.59,.4-2.09,1.1Z" style="fill: #07071a;"/>
          <path d="M303.94,595.61l-42.75-90.74s-.05-.06-.1-.06h-23s-.07,.02-.1,.06l-42.44,90.75c-.89,1.89,.41,4.11,2.39,4.07l15.28-.24c.98-.02,1.87-.62,2.31-1.56l.63-1.36,.83-1.76,32.68-69.04c.04-.09,.15-.09,.19,0l34.89,72.24c.46,.89,1.32,1.45,2.28,1.47l14.51,.24c1.98,.04,3.29-2.19,2.4-4.08Z" style="fill: #07071a;"/>
          <path d="M301.9,524.4s2.38,1.26,2.33,4.21c-.02,1.33-.62,2.58-1.49,3.58-29.59,33.86-58.82,65.63-60.06,66.84-.64,.63-1.51,.98-2.44,.98-1.01,0-1.97-.43-2.64-1.19l-26.75-27.3c-.63-.72-.95-1.55-.99-2.39l-.43-13.12c-.04-1.01,.33-1.98,1.04-2.71,.71-.73,1.68-1.15,2.68-1.15,.69,0,1.36,.2,1.94,.56l.22,.14,24.82,22.56,55.83-49.54c3.83-3.39,5.65-1.4,5.93-1.47Z" style="fill: #10f48b;"/>
        </g>
      </g>
    </g>
  </g>
</svg>