<svg width="563" height="121" viewBox="0 0 563 121" fill="none" xmlns="http://www.w3.org/2000/svg">
<path d="M242.47 96.2938V0.299805H261.212V96.2938H242.47Z" fill="#FF9C2E"/>
<path d="M0 120.295V24.3008H38.559C57.3006 24.3008 68.2228 34.8146 68.2228 51.2652C68.2228 61.9185 61.2103 68.7915 56.3593 71.0826C62.1566 73.777 69.5725 79.8482 69.5725 92.6531C69.5725 110.583 57.3055 120.295 40.1826 120.295H0ZM37.0748 41.0153H18.7366V63.1287H37.0748C45.0286 63.1287 49.4812 58.6811 49.4812 52.072C49.4812 45.4629 45.0336 41.0153 37.0748 41.0153ZM38.29 79.9827H18.7416V103.575H38.29C46.7818 103.575 50.8309 98.1814 50.8309 91.7118C50.8309 85.2421 46.7868 79.9827 38.29 79.9827Z" fill="black"/>
<path d="M119.756 80.924V120.295H101.149V80.924L72.2968 24.2958H92.6571L110.587 62.9893L128.248 24.2958H148.608L119.756 80.924Z" fill="black"/>
<path d="M158.449 120.295V24.3008H197.008C215.75 24.3008 226.672 34.8146 226.672 51.2652C226.672 61.9185 219.66 68.7915 214.809 71.0826C220.606 73.777 228.022 79.8482 228.022 92.6531C228.022 110.583 215.755 120.295 198.632 120.295H158.449ZM195.524 41.0153H177.186V63.1287H195.524C203.478 63.1287 207.931 58.6811 207.931 52.072C207.931 45.4629 203.483 41.0153 195.524 41.0153ZM196.739 79.9827H177.191V103.575H196.739C205.231 103.575 209.28 98.1814 209.28 91.7118C209.28 85.2421 205.236 79.9827 196.739 79.9827Z" fill="black"/>
<path d="M321.506 41.0203V120.3H302.764V41.0203H277.687V24.3008H346.583V41.0203H321.506Z" fill="black"/>
<path d="M445.613 55.7343C445.613 69.6198 435.85 78.5151 421.747 78.5151H401.244V110.3H393V33.062H421.747C435.85 33.062 445.613 41.8489 445.613 55.7343ZM437.368 55.7343C437.368 45.5372 430.643 40.4386 420.988 40.4386H401.244V71.1385H420.988C430.643 71.1385 437.368 65.9314 437.368 55.7343Z" fill="black"/>
<path d="M509.733 110.3H500.946L494.763 92.8345H461.025L454.842 110.3H446.055L474.477 33.062H481.42L509.733 110.3ZM492.376 85.6748L478.057 44.8863L463.52 85.6748H492.376Z" fill="black"/>
<path d="M562.147 33.062L539.367 78.4067V110.3H531.122V78.4067L508.124 33.062H517.02L535.244 70.0537L553.252 33.062H562.147Z" fill="black"/>
</svg>
