<svg width="491" height="80" viewBox="0 0 491 80" fill="none" xmlns="http://www.w3.org/2000/svg">
<path d="M412.561 30.65C412.561 28.55 412.161 26.65 411.461 24.95C410.761 23.25 409.761 21.65 408.461 20.35C407.161 19.05 405.561 18.05 403.661 17.35C401.761 16.65 399.661 16.25 397.361 16.25H380.161C379.761 16.25 379.361 16.55 379.361 17.05V62.85C379.361 63.25 379.661 63.65 380.161 63.65H385.761C386.161 63.65 386.561 63.35 386.561 62.85V44.95H397.361C399.661 44.95 401.761 44.55 403.661 43.85C405.561 43.15 407.061 42.15 408.461 40.85C409.761 39.55 410.761 38.05 411.461 36.25C412.161 34.65 412.561 32.75 412.561 30.65ZM490.561 16.85C490.761 16.45 490.661 16.25 490.361 16.25H483.561C482.961 16.25 482.961 16.35 482.761 16.85L473.161 37.05L463.561 16.85C463.361 16.35 463.261 16.25 462.761 16.25H455.961C455.561 16.25 455.561 16.45 455.761 16.85L469.661 44.15V62.85C469.661 63.25 470.061 63.65 470.461 63.65H476.061C476.461 63.65 476.861 63.35 476.861 62.85V44.15L490.561 16.85ZM454.761 63.05C454.861 63.45 454.861 63.65 454.561 63.65H447.961C447.361 63.65 447.361 63.55 447.161 63.05L444.061 54.15H425.361L422.261 63.05C422.061 63.55 421.961 63.65 421.461 63.65H414.861C414.461 63.65 414.461 63.45 414.661 63.05L431.661 16.65C431.761 16.35 431.961 16.25 432.261 16.25H437.161C437.461 16.25 437.661 16.35 437.761 16.65L454.761 63.05ZM405.361 30.65C405.361 32.35 404.961 33.75 404.261 34.95C403.561 36.15 402.561 36.95 401.361 37.65C400.061 38.25 398.661 38.55 396.961 38.55H386.561V22.85H396.961C398.661 22.85 400.061 23.15 401.361 23.75C402.661 24.35 403.561 25.25 404.261 26.45C404.961 27.55 405.361 28.95 405.361 30.65ZM442.161 47.95L434.961 26.95L427.561 47.95H442.161Z" fill="black"/>
<path d="M272.262 39.9501C272.262 37.9501 272.262 35.9501 272.162 34.2501C272.162 32.5501 271.962 30.9501 271.662 29.2501C271.362 27.7501 270.962 26.2501 270.262 24.9501C269.562 23.5501 268.662 22.2501 267.462 21.1501C265.862 19.5501 263.962 18.1501 261.862 17.2501C259.562 16.3501 257.162 15.8501 254.662 15.9501C252.162 15.9501 249.762 16.3501 247.462 17.2501C245.362 18.1501 243.462 19.4501 241.862 21.1501C240.762 22.2501 239.862 23.5501 239.162 24.9501C238.462 26.3501 238.062 27.7501 237.762 29.2501C237.462 30.8501 237.262 32.5501 237.262 34.2501C237.262 36.0501 237.262 37.9501 237.262 39.9501C237.262 41.9501 237.262 43.9501 237.262 45.6501C237.262 47.3501 237.462 48.9501 237.762 50.6501C238.062 52.1501 238.462 53.6501 239.162 54.9501C239.862 56.3501 240.762 57.6501 241.862 58.7501C243.462 60.3501 245.362 61.6501 247.462 62.6501C249.762 63.5501 252.162 64.0501 254.662 63.9501C257.062 63.9501 259.562 63.5501 261.862 62.6501C263.962 61.7501 265.862 60.4501 267.462 58.7501C268.562 57.6501 269.562 56.3501 270.262 54.9501C270.962 53.5501 271.362 52.1501 271.662 50.6501C271.962 49.0501 272.162 47.3501 272.162 45.6501C272.162 43.9501 272.262 41.9501 272.262 39.9501ZM164.362 55.7501C159.762 55.7501 156.262 51.6501 156.262 47.0501V17.0501C156.262 16.6501 155.862 16.2501 155.462 16.2501H147.862C147.462 16.2501 147.062 16.5501 147.062 17.0501V46.9501C147.062 57.3501 154.862 63.9501 164.462 63.9501C174.062 63.9501 181.862 57.3501 181.862 46.9501V17.0501C181.862 16.6501 181.462 16.2501 181.062 16.2501H173.362C172.962 16.2501 172.562 16.6501 172.562 17.0501V47.0501C172.562 51.6501 168.962 55.7501 164.362 55.7501ZM108.962 17.0501C108.962 16.6501 108.562 16.2501 108.162 16.2501H100.562C100.162 16.2501 99.7617 16.5501 99.7617 17.0501V62.7501C99.7617 63.1501 100.162 63.5501 100.562 63.5501H108.162C108.562 63.5501 108.962 63.2501 108.962 62.7501V49.3501L115.062 42.0501L127.562 63.3501C127.662 63.5501 127.862 63.5501 127.962 63.5501H137.262C137.662 63.5501 137.762 63.2501 137.562 62.9501L121.162 35.1501L136.262 17.0501C136.562 16.6501 136.462 16.3501 135.962 16.3501H125.862C125.762 16.3501 125.662 16.4501 125.562 16.4501L108.962 36.3501V17.0501ZM203.562 39.9501C203.562 37.6501 203.562 35.8501 203.662 34.2501C203.662 33.0501 203.862 31.8501 204.062 30.6501C204.862 26.3501 209.062 23.4501 213.462 24.3501C215.362 24.7501 217.162 25.7501 218.262 27.3501C218.962 28.3501 219.462 29.4501 219.762 30.7501C219.762 30.8501 219.862 30.9501 220.062 30.9501H229.062C229.162 30.9501 229.262 30.8501 229.162 30.7501C228.362 25.1501 225.062 20.3501 220.062 17.7501C217.462 16.5501 214.662 15.9501 211.762 16.0501C206.962 15.9501 202.362 17.8501 198.962 21.2501C196.962 23.1501 195.662 25.6501 195.062 28.3501C194.062 36.1501 194.062 44.0501 195.062 51.8501C195.562 54.5501 196.962 57.0501 198.962 58.9501C202.362 62.3501 206.962 64.2501 211.762 64.1501C214.562 64.2501 217.462 63.6501 220.062 62.5501C225.062 59.9501 228.462 55.1501 229.162 49.5501C229.162 49.4501 229.162 49.3501 229.062 49.3501H220.062C219.962 49.3501 219.862 49.4501 219.762 49.5501C219.462 50.7501 218.962 51.9501 218.262 52.9501C215.562 56.4501 210.562 57.1501 207.062 54.4501C205.462 53.2501 204.462 51.5501 204.062 49.6501C203.862 48.4501 203.762 47.2501 203.662 46.0501C203.562 44.0501 203.562 42.2501 203.562 39.9501ZM294.762 17.1501C294.762 16.6501 294.362 16.3501 293.962 16.3501H286.362C285.962 16.3501 285.562 16.7501 285.562 17.1501V62.7501C285.562 63.1501 285.962 63.5501 286.362 63.5501H293.962C294.462 63.5501 294.762 63.1501 294.762 62.7501V17.1501ZM345.762 17.1501C345.762 16.7501 345.462 16.3501 345.062 16.3501H337.362C336.962 16.3501 336.562 16.7501 336.562 17.1501V45.2501L317.962 16.4501C317.862 16.2501 317.662 16.2501 317.462 16.2501H310.362C309.962 16.2501 309.562 16.6501 309.562 17.0501V62.7501C309.562 63.1501 309.962 63.5501 310.362 63.5501H317.962C318.362 63.5501 318.762 63.2501 318.762 62.7501V34.5501L337.362 63.3501C337.462 63.5501 337.662 63.5501 337.862 63.5501H344.962C345.362 63.5501 345.762 63.2501 345.762 62.7501V17.1501ZM262.962 39.9501C262.962 42.2501 262.962 44.0501 262.862 45.5501C262.862 46.7501 262.662 48.0501 262.462 49.2501C262.362 50.0501 262.062 50.8501 261.762 51.5501C261.462 52.1501 261.062 52.6501 260.662 53.1501C259.962 53.9501 259.162 54.5501 258.162 54.9501C257.062 55.4501 255.962 55.6501 254.762 55.6501C253.562 55.6501 252.362 55.4501 251.262 54.9501C250.262 54.5501 249.362 53.9501 248.762 53.1501C248.362 52.6501 247.962 52.1501 247.662 51.5501C247.362 50.8501 247.162 50.0501 246.962 49.2501C246.762 48.0501 246.662 46.7501 246.562 45.5501C246.562 44.0501 246.462 42.1501 246.462 39.9501C246.462 37.6501 246.462 35.8501 246.562 34.3501C246.562 33.1501 246.762 31.8501 246.962 30.6501C247.062 29.8501 247.362 29.0501 247.662 28.3501C247.962 27.7501 248.362 27.2501 248.762 26.7501C249.462 25.9501 250.262 25.3501 251.262 24.9501C252.362 24.4501 253.562 24.2501 254.762 24.2501C255.962 24.2501 257.062 24.4501 258.162 24.9501C259.162 25.3501 259.962 25.9501 260.662 26.7501C261.062 27.2501 261.462 27.7501 261.762 28.3501C262.062 29.0501 262.362 29.8501 262.462 30.6501C262.662 31.8501 262.762 33.1501 262.862 34.3501C262.962 35.8501 262.962 37.6501 262.962 39.9501Z" fill="#28CD96"/>
<path d="M23.1616 39.95L46.8616 63.55L61.7616 48.65C64.4616 45.95 68.6616 45.95 71.3616 48.65C74.0616 51.35 74.0616 55.55 71.3616 58.25L51.6616 77.95C48.9616 80.55 44.7616 80.55 42.0616 77.95L13.5616 49.55V66.45C14.0616 70.15 11.4616 73.55 7.76157 74.05C4.06157 74.55 0.661582 71.95 0.161582 68.25C0.161582 68.05 0.161576 67.85 0.061576 67.65C0.061576 67.25 0.061576 66.85 0.061576 66.45V13.65C-0.438424 9.95 2.16158 6.55001 5.86158 6.05001C9.56158 5.55001 12.9616 8.14999 13.4616 11.85C13.4616 12.05 13.4616 12.25 13.5616 12.45C13.5616 12.85 13.5616 13.25 13.5616 13.65V30.35L41.9616 1.95C44.6616 -0.65 48.8616 -0.65 51.5616 1.95L71.2616 21.65C73.9616 24.35 73.9616 28.55 71.2616 31.25C68.5616 33.95 64.3616 33.95 61.6616 31.25L46.7616 16.35L23.1616 39.95ZM46.7616 33.15C43.0616 33.15 39.9616 36.15 39.9616 39.95C39.9616 43.65 42.9616 46.75 46.7616 46.75C50.4616 46.75 53.5616 43.75 53.5616 39.95C53.5616 36.25 50.4616 33.15 46.7616 33.15Z" fill="#28CD96"/>
</svg>
