<svg width="491" height="80" viewBox="0 0 491 80" fill="none" xmlns="http://www.w3.org/2000/svg">
<path d="M412.561 30.65C412.561 28.55 412.161 26.65 411.461 24.95C410.761 23.25 409.761 21.65 408.461 20.35C407.161 19.05 405.561 18.05 403.661 17.35C401.761 16.65 399.661 16.25 397.361 16.25H380.161C379.761 16.25 379.361 16.55 379.361 17.05V62.85C379.361 63.25 379.661 63.65 380.161 63.65H385.761C386.161 63.65 386.561 63.35 386.561 62.85V44.95H397.361C399.661 44.95 401.761 44.55 403.661 43.85C405.561 43.15 407.061 42.15 408.461 40.85C409.761 39.55 410.761 38.05 411.461 36.25C412.161 34.65 412.561 32.75 412.561 30.65ZM490.561 16.85C490.761 16.45 490.661 16.25 490.361 16.25H483.561C482.961 16.25 482.961 16.35 482.761 16.85L473.161 37.05L463.561 16.85C463.361 16.35 463.261 16.25 462.761 16.25H455.961C455.561 16.25 455.561 16.45 455.761 16.85L469.661 44.15V62.85C469.661 63.25 470.061 63.65 470.461 63.65H476.061C476.461 63.65 476.861 63.35 476.861 62.85V44.15L490.561 16.85ZM454.761 63.05C454.861 63.45 454.861 63.65 454.561 63.65H447.961C447.361 63.65 447.361 63.55 447.161 63.05L444.061 54.15H425.361L422.261 63.05C422.061 63.55 421.961 63.65 421.461 63.65H414.861C414.461 63.65 414.461 63.45 414.661 63.05L431.661 16.65C431.761 16.35 431.961 16.25 432.261 16.25H437.161C437.461 16.25 437.661 16.35 437.761 16.65L454.761 63.05ZM405.361 30.65C405.361 32.35 404.961 33.75 404.261 34.95C403.561 36.15 402.561 36.95 401.361 37.65C400.061 38.25 398.661 38.55 396.961 38.55H386.561V22.85H396.961C398.661 22.85 400.061 23.15 401.361 23.75C402.661 24.35 403.561 25.25 404.261 26.45C404.961 27.55 405.361 28.95 405.361 30.65ZM442.161 47.95L434.961 26.95L427.561 47.95H442.161Z" fill="white"/>
<path d="M272.262 39.9499C272.262 37.9499 272.262 35.9499 272.162 34.2499C272.162 32.5499 271.962 30.9499 271.662 29.2499C271.362 27.7499 270.962 26.2499 270.262 24.9499C269.562 23.5499 268.662 22.2499 267.462 21.1499C265.862 19.5499 263.962 18.1499 261.862 17.2499C259.562 16.3499 257.162 15.8499 254.662 15.9499C252.162 15.9499 249.762 16.3499 247.462 17.2499C245.362 18.1499 243.462 19.4499 241.862 21.1499C240.762 22.2499 239.862 23.5499 239.162 24.9499C238.462 26.3499 238.062 27.7499 237.762 29.2499C237.462 30.8499 237.262 32.5499 237.262 34.2499C237.262 36.0499 237.262 37.9499 237.262 39.9499C237.262 41.9499 237.262 43.9499 237.262 45.6499C237.262 47.3499 237.462 48.9499 237.762 50.6499C238.062 52.1499 238.462 53.6499 239.162 54.9499C239.862 56.3499 240.762 57.6499 241.862 58.7499C243.462 60.3499 245.362 61.6499 247.462 62.6499C249.762 63.5499 252.162 64.0499 254.662 63.9499C257.062 63.9499 259.562 63.5499 261.862 62.6499C263.962 61.7499 265.862 60.4499 267.462 58.7499C268.562 57.6499 269.562 56.3499 270.262 54.9499C270.962 53.5499 271.362 52.1499 271.662 50.6499C271.962 49.0499 272.162 47.3499 272.162 45.6499C272.162 43.9499 272.262 41.9499 272.262 39.9499ZM164.362 55.7499C159.762 55.7499 156.262 51.6499 156.262 47.0499V17.0499C156.262 16.6499 155.862 16.2499 155.462 16.2499H147.862C147.462 16.2499 147.062 16.5499 147.062 17.0499V46.9499C147.062 57.3499 154.862 63.9499 164.462 63.9499C174.062 63.9499 181.862 57.3499 181.862 46.9499V17.0499C181.862 16.6499 181.462 16.2499 181.062 16.2499H173.362C172.962 16.2499 172.562 16.6499 172.562 17.0499V47.0499C172.562 51.6499 168.962 55.7499 164.362 55.7499ZM108.962 17.0499C108.962 16.6499 108.562 16.2499 108.162 16.2499H100.562C100.162 16.2499 99.7617 16.5499 99.7617 17.0499V62.7499C99.7617 63.1499 100.162 63.5499 100.562 63.5499H108.162C108.562 63.5499 108.962 63.2499 108.962 62.7499V49.3499L115.062 42.0499L127.562 63.3499C127.662 63.5499 127.862 63.5499 127.962 63.5499H137.262C137.662 63.5499 137.762 63.2499 137.562 62.9499L121.162 35.1499L136.262 17.0499C136.562 16.6499 136.462 16.3499 135.962 16.3499H125.862C125.762 16.3499 125.662 16.4499 125.562 16.4499L108.962 36.3499V17.0499ZM203.562 39.9499C203.562 37.6499 203.562 35.8499 203.662 34.2499C203.662 33.0499 203.862 31.8499 204.062 30.6499C204.862 26.3499 209.062 23.4499 213.462 24.3499C215.362 24.7499 217.162 25.7499 218.262 27.3499C218.962 28.3499 219.462 29.4499 219.762 30.7499C219.762 30.8499 219.862 30.9499 220.062 30.9499H229.062C229.162 30.9499 229.262 30.8499 229.162 30.7499C228.362 25.1499 225.062 20.3499 220.062 17.7499C217.462 16.5499 214.662 15.9499 211.762 16.0499C206.962 15.9499 202.362 17.8499 198.962 21.2499C196.962 23.1499 195.662 25.6499 195.062 28.3499C194.062 36.1499 194.062 44.0499 195.062 51.8499C195.562 54.5499 196.962 57.0499 198.962 58.9499C202.362 62.3499 206.962 64.2499 211.762 64.1499C214.562 64.2499 217.462 63.6499 220.062 62.5499C225.062 59.9499 228.462 55.1499 229.162 49.5499C229.162 49.4499 229.162 49.3499 229.062 49.3499H220.062C219.962 49.3499 219.862 49.4499 219.762 49.5499C219.462 50.7499 218.962 51.9499 218.262 52.9499C215.562 56.4499 210.562 57.1499 207.062 54.4499C205.462 53.2499 204.462 51.5499 204.062 49.6499C203.862 48.4499 203.762 47.2499 203.662 46.0499C203.562 44.0499 203.562 42.2499 203.562 39.9499ZM294.762 17.1499C294.762 16.6499 294.362 16.3499 293.962 16.3499H286.362C285.962 16.3499 285.562 16.7499 285.562 17.1499V62.7499C285.562 63.1499 285.962 63.5499 286.362 63.5499H293.962C294.462 63.5499 294.762 63.1499 294.762 62.7499V17.1499ZM345.762 17.1499C345.762 16.7499 345.462 16.3499 345.062 16.3499H337.362C336.962 16.3499 336.562 16.7499 336.562 17.1499V45.2499L317.962 16.4499C317.862 16.2499 317.662 16.2499 317.462 16.2499H310.362C309.962 16.2499 309.562 16.6499 309.562 17.0499V62.7499C309.562 63.1499 309.962 63.5499 310.362 63.5499H317.962C318.362 63.5499 318.762 63.2499 318.762 62.7499V34.5499L337.362 63.3499C337.462 63.5499 337.662 63.5499 337.862 63.5499H344.962C345.362 63.5499 345.762 63.2499 345.762 62.7499V17.1499ZM262.962 39.9499C262.962 42.2499 262.962 44.0499 262.862 45.5499C262.862 46.7499 262.662 48.0499 262.462 49.2499C262.362 50.0499 262.062 50.8499 261.762 51.5499C261.462 52.1499 261.062 52.6499 260.662 53.1499C259.962 53.9499 259.162 54.5499 258.162 54.9499C257.062 55.4499 255.962 55.6499 254.762 55.6499C253.562 55.6499 252.362 55.4499 251.262 54.9499C250.262 54.5499 249.362 53.9499 248.762 53.1499C248.362 52.6499 247.962 52.1499 247.662 51.5499C247.362 50.8499 247.162 50.0499 246.962 49.2499C246.762 48.0499 246.662 46.7499 246.562 45.5499C246.562 44.0499 246.462 42.1499 246.462 39.9499C246.462 37.6499 246.462 35.8499 246.562 34.3499C246.562 33.1499 246.762 31.8499 246.962 30.6499C247.062 29.8499 247.362 29.0499 247.662 28.3499C247.962 27.7499 248.362 27.2499 248.762 26.7499C249.462 25.9499 250.262 25.3499 251.262 24.9499C252.362 24.4499 253.562 24.2499 254.762 24.2499C255.962 24.2499 257.062 24.4499 258.162 24.9499C259.162 25.3499 259.962 25.9499 260.662 26.7499C261.062 27.2499 261.462 27.7499 261.762 28.3499C262.062 29.0499 262.362 29.8499 262.462 30.6499C262.662 31.8499 262.762 33.1499 262.862 34.3499C262.962 35.8499 262.962 37.6499 262.962 39.9499Z" fill="#28CD96"/>
<path d="M23.1616 39.95L46.8616 63.55L61.7616 48.65C64.4616 45.95 68.6616 45.95 71.3616 48.65C74.0616 51.35 74.0616 55.55 71.3616 58.25L51.6616 77.95C48.9616 80.55 44.7616 80.55 42.0616 77.95L13.5616 49.55V66.45C14.0616 70.15 11.4616 73.55 7.76157 74.05C4.06157 74.55 0.661582 71.95 0.161582 68.25C0.161582 68.05 0.161576 67.85 0.061576 67.65C0.061576 67.25 0.061576 66.85 0.061576 66.45V13.65C-0.438424 9.95 2.16158 6.55001 5.86158 6.05001C9.56158 5.55001 12.9616 8.14999 13.4616 11.85C13.4616 12.05 13.4616 12.25 13.5616 12.45C13.5616 12.85 13.5616 13.25 13.5616 13.65V30.35L41.9616 1.95C44.6616 -0.65 48.8616 -0.65 51.5616 1.95L71.2616 21.65C73.9616 24.35 73.9616 28.55 71.2616 31.25C68.5616 33.95 64.3616 33.95 61.6616 31.25L46.7616 16.35L23.1616 39.95ZM46.7616 33.15C43.0616 33.15 39.9616 36.15 39.9616 39.95C39.9616 43.65 42.9616 46.75 46.7616 46.75C50.4616 46.75 53.5616 43.75 53.5616 39.95C53.5616 36.25 50.4616 33.15 46.7616 33.15Z" fill="#28CD96"/>
</svg>
