<?xml version="1.0" encoding="UTF-8"?><svg id="b" xmlns="http://www.w3.org/2000/svg" viewBox="0 0 585.19 585.19"><defs><style>.f{fill:#1c6ef5;}</style></defs><g id="c"><g id="d"><path id="e" class="f" d="M290.94,0C143.44,0,21.31,107.94,0,248.71h89.84c20.22-92,102.51-160.93,201.1-160.93s180.88,68.93,201.1,160.93h-91.95c-17.45-42.92-59.73-73.15-109.15-73.15-65,0-117.7,52.4-117.7,117.04s52.7,117.04,117.7,117.04c49.39,0,91.68-30.27,109.15-73.15h91.95c-20.22,92-102.51,160.93-201.1,160.93s-180.88-68.93-201.1-160.93H0c21.31,140.76,143.44,248.71,290.94,248.71,162.51,0,294.25-131,294.25-292.6S453.45,0,290.94,0h0Z"/></g></g></svg>